# xmcd
#
# Track frame offsets: 
#        150
#        674
#        20243
#        42133
#        59589
#        77154
#        91066
#        109883
#        124251
#        140023
#        153558
#        171258
#        188235
#        205385
#        226396
#        245417
#        261566
#        276186
#        297834
#        314953
#
# Disc length: 4423 seconds
#
# Revision: 0
# Processed by: cddbd v1.5.2PL0 Copyright (c) Steve Scherf et al.
# Submitted via: ExactAudioCopy v0.99pb4
#
DISCID=34114514
DTITLE=Various Artist - prevue promo 1083A-2
DYEAR=2002
DGENRE=pop
TTITLE0=blank - data
TTITLE1=Backstreet Boys - Drowning(Dann Huff's Remix 2)
TTITLE2=Luther Vandross - I'd Rather
TTITLE3=Alanis Morissette - Hands Clean
TTITLE4=Babyface - I Keep Callin'
TTITLE5=Vines - I'm Only Sleeping
TTITLE6=Kosheen - Hide U
TTITLE7=110 - Rapture
TTITLE8=Aubrey - Stand Still
TTITLE9=Craig David - 7 Days(DJ Premier Remix - No Rap)
TTITLE10=Janet with Carly Simon feat.  Missy Elliott - Son Of A Gun (I
TTITLE10=Betcha Think This Song Is About You)(Lyrics!! - Al B. Rich R
TTITLE10=emix)
TTITLE11=Lil' Romeo, Nick Cannon and 3LW - Parents Just Don't Understand
TTITLE11=("Jimmy Neutron: Boy Genious" Movie - Teddy Riley Remix)
TTITLE12=Mick Jagger - Visions Of Paradise
TTITLE13=Mick Jagger - Joy
TTITLE14=Luce - Good Day
TTITLE15=Innocence Mission - Today
TTITLE16=Phantom Planet - California
TTITLE17=Hope Sandoval and The Warm Inventions - Suzanne
TTITLE18=Unwritten Law - Seein' Red
TTITLE19=Disturbed - Game, The(Lyrics!! - Album Version)
EXTD=
EXTT0=
EXTT1=
EXTT2=
EXTT3=
EXTT4=
EXTT5=
EXTT6=
EXTT7=
EXTT8=
EXTT9=
EXTT10=
EXTT11=
EXTT12=
EXTT13=
EXTT14=
EXTT15=
EXTT16=
EXTT17=
EXTT18=
EXTT19=
PLAYORDER=
